<svg width="512" height="512" viewBox="0 0 512 512" fill="none" xmlns="http://www.w3.org/2000/svg">
<path d="M262.156 63.5249C263.921 60.7758 267.94 60.7758 269.706 63.5249L321.801 144.635C323.811 147.764 326.922 150.024 330.518 150.968L423.755 175.452C426.915 176.281 428.157 180.103 426.088 182.631L365.048 257.245C362.694 260.123 361.505 263.78 361.718 267.492L367.247 363.734C367.434 366.996 364.183 369.358 361.138 368.171L271.318 333.174C267.853 331.824 264.008 331.824 260.543 333.174L170.723 368.171C167.679 369.358 164.427 366.996 164.615 363.734L170.143 267.492C170.356 263.78 169.167 260.123 166.813 257.245L105.773 182.631C103.704 180.103 104.946 176.281 108.106 175.452L201.343 150.968C204.94 150.024 208.051 147.764 210.06 144.635L262.156 63.5249Z" fill="#FFDB9C" stroke="#FDC564" stroke-width="10.353"/>
<path d="M217.877 315.621C220.184 279.478 226.101 271.511 228.771 272.045C235.692 269.994 238.49 272.899 239.024 274.609C236.354 286.25 230.053 310.751 226.208 315.621C222.363 320.49 219.052 317.65 217.877 315.621Z" fill="#FA9EB7"/>
<path d="M261.13 268.515C259.079 262.876 251.732 268.729 248.314 272.36C248.955 286.031 250.877 314.206 253.44 317.538C256.004 320.871 259.635 318.927 261.13 317.538C262.412 304.402 263.693 275.564 261.13 268.515Z" fill="#FA9EB7"/>
<path d="M226.842 173.655C247.027 196.404 220.434 207.618 210.502 193.841C209.733 193.584 209.541 194.375 209.541 194.802C210.566 196.596 214.774 200.355 215.628 201.21C208.579 201.53 203.774 198.326 203.453 197.685C203.197 197.173 204.628 195.549 205.375 194.802C204.35 188.906 204.948 181.024 205.375 177.82C212.809 161.928 225.774 166.286 231.328 170.452C233.571 170.345 238.377 170.259 239.658 170.772C241.26 171.413 237.415 189.997 237.095 184.87C236.775 179.743 231.007 173.655 228.124 172.694C225.817 171.925 226.308 173.014 226.842 173.655Z" fill="#FA9EB7"/>
<path d="M270.098 319.116C271.892 307.324 270.846 277.462 270.098 264.005C284.195 255.545 276.613 238.48 271.059 231.005C256 202.169 265.612 149.301 268.496 147.058C270.803 145.264 272.875 146.951 273.622 148.019C272.853 163.911 273.943 173.865 274.584 176.856C276.89 199.669 295.196 198.964 304.06 195.76C310.212 194.991 327.984 179.419 336.1 171.729C340.714 170.447 341.868 174.613 341.868 176.856C335.46 181.982 311.109 216.587 309.187 222.674C307.649 227.545 305.128 229.189 304.06 229.403C291.501 234.786 280.671 232.714 276.826 231.005L277.147 233.248C276.89 237.093 296.05 235.491 305.662 234.209C307.692 236.879 310.148 241.578 310.148 246.385C310.148 251.192 322.644 288.358 329.692 307.263C327.642 313.158 322.857 313.137 320.721 312.389C313.672 297.33 298.485 266.377 294.128 263.045C289.771 259.713 287.613 262.297 287.079 264.005C282.594 262.083 279.069 317.514 275.224 319.116C272.148 320.397 270.525 319.65 270.098 319.116Z" fill="#44B3E0"/>
<ellipse cx="295.41" cy="177.83" rx="14.0976" ry="15.0593" fill="#44B3E0"/>
<path d="M238.384 201.226C234.539 208.659 226.529 207.314 223.004 205.712C208.907 203.468 179.879 199.687 176.546 202.506C173.214 205.326 175.158 208.38 176.546 209.555C187.76 210.303 211.406 213.721 216.276 221.411C221.146 229.1 218.305 254.733 216.276 266.588C230.374 273.958 276.004 260.793 269.783 248.005C264.016 236.149 256.219 214.148 254.724 204.108C250.623 194.881 255.579 161.815 258.569 146.436C255.493 143.36 253.229 145.154 252.481 146.436C247.611 151.562 241.054 185.099 238.384 201.226Z" fill="#FA9EB7"/>
<path d="M453.564 419.218C279.652 601.098 74.2198 474.906 37.8071 384.477C78.2415 420.853 134.364 434.034 157.371 436.077C181.719 442.208 211.175 426.881 219.87 420.24C224.762 415.641 241.718 406.956 270.413 409C306.283 411.554 333.456 412.576 344.326 412.576C353.021 412.576 362.079 407.467 365.521 404.913C372.405 401.166 384.869 397.453 379.651 412.576C373.13 431.479 349.76 440.676 336.717 442.719C326.282 444.354 295.051 443.4 280.739 442.719C271.609 440.676 272.044 448.339 274.218 452.426C368.782 496.364 432.368 405.934 449.216 407.467C455.517 408.04 454.651 415.982 453.564 419.218Z" fill="#FDC564"/>
<path d="M34.2861 384.075C44.4493 400.673 55.3141 415.396 66.7334 428.393C54.4076 414.867 43.5124 400.014 34.2861 384.075ZM435.327 391.593C463.868 353.901 480.8 306.932 480.8 256.008C480.8 131.849 380.152 31.2002 256 31.2002C131.848 31.2003 31.2003 131.849 31.2002 256.008C31.2002 311.59 51.3721 362.461 84.793 401.699L82.4102 401.769C60.1914 392.157 34.4829 373.047 23.9932 364.361C8.5998 331.456 0 294.736 0 256.008C6.59719e-05 114.619 114.615 8.24899e-05 256 0C397.385 0 512 114.619 512 256.008C512 312.546 493.672 364.802 462.635 407.162C462.343 403.59 461.228 400.758 459.581 398.536C457.829 396.172 455.487 394.517 452.937 393.39C447.857 391.146 441.909 390.983 437.97 391.518L435.327 391.593Z" fill="#112456"/>
</svg>
