<svg width="107" height="107" viewBox="0 0 107 107" fill="none" xmlns="http://www.w3.org/2000/svg">
<path d="M23.4378 26.2693H81.5563C83.0506 26.2693 84.2627 27.4814 84.2627 28.9756V81.4098C84.2627 82.904 83.0506 84.1162 81.5563 84.1162H23.4378C21.9436 84.1162 20.7314 82.904 20.7314 81.4098V28.9756C20.7314 27.4814 21.9436 26.2693 23.4378 26.2693Z" fill="white"/>
<path d="M81.556 86.8121H23.4374C20.4594 86.8121 18.0352 84.3879 18.0352 81.4099V28.9757C18.0352 25.9977 20.4594 23.5735 23.4374 23.5735H81.556C84.534 23.5735 86.9582 25.9977 86.9582 28.9757V81.4099C86.9582 84.3879 84.534 86.8121 81.556 86.8121ZM23.4374 28.9757V81.4099H81.556V28.9757H23.4374Z" fill="#333333"/>
<path d="M23.4375 28.9443H82.8413V44.8376H23.4375V28.9443Z" fill="#FFDB5B"/>
<path d="M20.7314 41.7446H86.9586V47.1573H20.7314V41.7446ZM51.7865 66.7496L62.3402 56.1959C63.5732 54.9629 65.569 54.9629 66.8021 56.1959L66.8125 56.2064C68.0455 57.4394 68.0455 59.4352 66.8125 60.6682L54.2003 73.2699C53.542 73.9282 52.6538 74.2417 51.7865 74.1895C50.9192 74.2417 50.0415 73.9282 49.3728 73.2699L41.4314 65.3285C40.1983 64.0955 40.1983 62.0997 41.4314 60.8667L41.4418 60.8563C42.6748 59.6232 44.6706 59.6232 45.9036 60.8563L51.7865 66.7496Z" fill="#333333"/>
<path d="M34.2423 17.4293C35.7365 17.4293 36.9486 18.6414 36.9486 20.1357V24.19H31.5464V20.1357C31.5464 18.631 32.7585 17.4293 34.2423 17.4293ZM69.3935 17.4293C70.8877 17.4293 72.0998 18.6414 72.0998 20.1357V24.19H66.6976V20.1357C66.6871 18.631 67.8992 17.4293 69.3935 17.4293Z" fill="#333333"/>
</svg>
